<svg id="logo-H" xmlns="http://www.w3.org/2000/svg" xmlns:xlink="http://www.w3.org/1999/xlink" width="164.765" height="32.387" viewBox="0 0 164.765 32.387">
  <defs>
    <linearGradient id="linear-gradient" x1="0.154" y1="0.384" x2="0.735" y2="1.143" gradientUnits="objectBoundingBox">
      <stop offset="0" stop-color="#ff6c21"/>
      <stop offset="0.025" stop-color="#f66929"/>
      <stop offset="0.254" stop-color="#ac4f6a"/>
      <stop offset="0.418" stop-color="#7e3f92"/>
      <stop offset="0.5" stop-color="#6c39a2"/>
      <stop offset="1" stop-color="#403fd8"/>
    </linearGradient>
  </defs>
  <g id="Group_16" data-name="Group 16">
    <path id="Path_28" data-name="Path 28" d="M3812.987,327.954l-3.754-.463-7.9-18.933-14.656,19.955,15.408-26.793Zm-6.671-19.859,8.984,21.616-20.47-2.667-2.345,3.118,28.713,3.782Zm-16.146,23.146,12.5-16.374-1.521-3.643-17.156,22.883h29.227Z" transform="translate(-3783.99 -301.72)" fill="url(#linear-gradient)"/>
  </g>
  <g id="Group_17" data-name="Group 17" transform="translate(41.961 8)">
    <path id="Path_45" data-name="Path 45" d="M3623.23,705.324h2.485l2.344-5.728h4.175l2.43,5.728h2.582l-7-16.364Zm8.043-8.128h-2.153l1.027-2.543Z" transform="translate(-3623.23 -688.96)" fill="#fff"/>
    <path id="Path_46" data-name="Path 46" d="M3854.2,705.324h2.485l2.344-5.728h4.175l2.429,5.728h2.582l-7-16.364Zm8.042-8.128h-2.153l1.027-2.543Z" transform="translate(-3811.231 -688.96)" fill="#fff"/>
    <path id="Path_47" data-name="Path 47" d="M3706.85,695.936h4.922v13.27h2.376v-13.27h4.945V693.73H3706.85Z" transform="translate(-3691.294 -692.843)" fill="#fff"/>
    <path id="Path_48" data-name="Path 48" d="M3785.674,693.73H3783.3v15.477h10.079V706.97h-7.706Z" transform="translate(-3753.521 -692.843)" fill="#fff"/>
    <path id="Path_49" data-name="Path 49" d="M3951.264,700.023l-.095-.043a6.271,6.271,0,0,1-1.725-1.217,1.908,1.908,0,0,1-.392-1.23,1.5,1.5,0,0,1,.5-1.206,2.144,2.144,0,0,1,1.458-.456,2.573,2.573,0,0,1,1.215.283,1.888,1.888,0,0,1,.794.765l.191.346,1.576-1.468-.147-.219a4.077,4.077,0,0,0-1.507-1.379,4.913,4.913,0,0,0-5.124.6,3.622,3.622,0,0,0-1.185,2.807,3.851,3.851,0,0,0,.824,2.513,8.541,8.541,0,0,0,2.768,1.92,7.9,7.9,0,0,1,2.214,1.46,2.343,2.343,0,0,1-.037,3.179,2.661,2.661,0,0,1-1.842.592,3.043,3.043,0,0,1-1.678-.465,2.436,2.436,0,0,1-1-1.265l-.152-.42-1.662,1.418.088.208a4.114,4.114,0,0,0,1.68,1.957,5.009,5.009,0,0,0,2.66.7,4.949,4.949,0,0,0,3.481-1.189,4.243,4.243,0,0,0,1.3-3.259C3955.463,703.18,3954.05,701.52,3951.264,700.023Z" transform="translate(-3886.163 -692.851)" fill="#fff"/>
    <path id="Path_50" data-name="Path 50" d="M4065.123,695.758a8.3,8.3,0,0,0-6.022-2.028h-3.241V709.3h3.146c2.8,0,4.671-.659,6.13-1.957a7.374,7.374,0,0,0,2.214-5.788A7.55,7.55,0,0,0,4065.123,695.758Zm-.073,5.78a5.423,5.423,0,0,1-1.49,4.208,6.243,6.243,0,0,1-4.5,1.354h-.9V695.933h1.079a5.808,5.808,0,0,1,4.279,1.42A5.466,5.466,0,0,1,4065.05,701.538Z" transform="translate(-3975.374 -692.843)" fill="#fff"/>
    <path id="Path_51" data-name="Path 51" d="M4136.67,709.207h10.154v-2.242h-7.815V702.61h6.718v-2.232h-6.718v-4.391h7.815V693.73H4136.67Z" transform="translate(-4041.15 -692.843)" fill="#fff"/>
    <path id="Path_52" data-name="Path 52" d="M4220.213,701.512l5.154-7.782h-3.006l-3.543,5.592-3.665-5.592h-2.916l4.942,7.59-5.06,7.886h2.934l3.6-5.563,3.573,5.563h2.914Z" transform="translate(-4102.563 -692.843)" fill="#fff"/>
  </g>
</svg>
